<?xml version="1.0" encoding="UTF-8"?>
<svg xmlns="http://www.w3.org/2000/svg" width="32" height="32">
  <title>Mockello</title>
  <!-- Themed Pink Background Circle -->
  <circle cx="16" cy="16" r="16" fill="#BE185D"/>
  
  <!-- Stylized M in Pure White -->
  <path d="
      M 10.7 10
      C 10.7 10, 10.7 22, 10.7 22
      C 10.7 22, 12.4 22, 13 22
      C 13 22, 13 16.25, 13 16.25
      L 16 21.375
      L 19 16.25
      C 19 16.25, 19 22, 19 22
      C 19 22, 20.7 22, 21.3 22
      C 21.3 22, 21.3 10, 21.3 10
      C 21.3 10, 19.6 10, 19 10
      L 16 16.625
      L 13 10
      C 12.4 10, 10.7 10, 10.7 10
      Z" 
      fill="#FFFFFF"/>
</svg> 