<?xml version="1.0" standalone="no"?>
<!DOCTYPE svg PUBLIC "-//W3C//DTD SVG 20010904//EN" "http://www.w3.org/TR/2001/REC-SVG-20010904/DTD/svg10.dtd">
<svg xmlns="http://www.w3.org/2000/svg" width="512" height="512" viewBox="0 0 512 512">
    <!-- Themed Pink Background Circle -->
    <circle cx="256" cy="256" r="256" fill="#BE185D"/>
    
    <!-- Stylized M in Pure White -->
    <path d="
        M 171 160
        C 171 160, 171 352, 171 352
        C 171 352, 198 352, 208 352
        C 208 352, 208 260, 208 260
        L 256 342
        L 304 260
        C 304 260, 304 352, 304 352
        C 304 352, 331 352, 341 352
        C 341 352, 341 160, 341 160
        C 341 160, 314 160, 304 160
        L 256 266
        L 208 160
        C 198 160, 171 160, 171 160
        Z" 
        fill="#FFFFFF"/>
</svg> 